Coordinates
version=1
nRows=13
nColumns=40
inDegrees=yes

Units are S.I. units (second, meters, Newtons, ...)
Angles are in degrees.

endheader
time	pelvis_tilt	pelvis_list	pelvis_rotation	pelvis_tx	pelvis_ty	pelvis_tz	hip_flexion_r	hip_adduction_r	hip_rotation_r	knee_angle_r	knee_angle_r_beta	ankle_angle_r	subtalar_angle_r	mtp_angle_r	hip_flexion_l	hip_adduction_l	hip_rotation_l	knee_angle_l	knee_angle_l_beta	ankle_angle_l	subtalar_angle_l	mtp_angle_l	lumbar_extension	lumbar_bending	lumbar_rotation	arm_flex_r	arm_add_r	arm_rot_r	elbow_flex_r	pro_sup_r	wrist_flex_r	wrist_dev_r	arm_flex_l	arm_add_l	arm_rot_l	elbow_flex_l	pro_sup_l	wrist_flex_l	wrist_dev_l
      0.77000000	     -3.13696015	     -4.29893446	      4.17023001	      1.07489953	      0.92099935	      0.36797174	     23.44022568	     -6.62223421	     -1.26538242	     72.64315612	     72.64315612	      4.63040817	    -18.58305707	      9.35486179	     20.71519065	     -0.71244032	      1.57784075	     30.40422711	     30.40422711	     16.16708809	    -15.95473901	      5.97267546	    -10.04773819	      5.01268857	      4.77536183	     34.26799075	    -13.03521693	    -20.83892485	     29.81518896	     44.40756646	      0.00000000	      0.00000000	      9.02913622	    -11.89465046	     13.03351519	     30.50988700	     43.57499638	      0.00000000	      0.00000000
      0.79192857	     -2.85481472	     -3.99598198	      3.86428902	      1.07524157	      0.91888261	      0.36495424	     24.39423771	     -7.46601717	     -1.37775111	     74.91335444	     74.91335444	      5.19053795	    -18.90801903	      9.57301124	     20.52654838	     -0.24092202	      1.38242720	     31.41292676	     31.41292676	     16.83166178	    -16.39041861	      5.60434948	     -9.90714346	      5.10528302	      4.22663027	     30.41512922	    -12.72946639	    -20.86497879	     28.22515593	     44.47419342	      0.00000000	      0.00000000	     10.57697159	    -11.97898844	     12.67199358	     31.61682355	     43.67152938	      0.00000000	      0.00000000
      0.81385714	     -2.55056232	     -3.76256275	      3.50067534	      1.07555903	      0.91692020	      0.36207941	     25.30110468	     -8.19304354	     -1.46398678	     76.70952706	     76.70952706	      6.04690664	    -19.10370414	     10.61919034	     20.27461414	      0.14266710	      1.16914561	     32.36033509	     32.36033509	     17.55951218	    -16.79836028	      5.45539639	     -9.86853559	      5.25907058	      4.17019805	     26.14427548	    -12.82547918	    -20.79447964	     26.56650649	     44.54225409	      0.00000000	      0.00000000	     12.31796078	    -11.95002489	     12.08842164	     33.31758723	     43.80658052	      0.00000000	      0.00000000
      0.83578571	     -2.16369658	     -3.61889177	      3.10448527	      1.07590201	      0.91540799	      0.35955579	     26.11711147	     -8.63322606	     -1.46735508	     77.91770145	     77.91770145	      7.92864042	    -19.18000306	     15.04884371	     19.88391212	      0.40751115	      0.96866352	     33.24761128	     33.24761128	     18.66414089	    -16.98126079	      6.28915615	    -10.01219865	      5.53111460	      3.81739737	     21.60972955	    -12.71295523	    -19.79136210	     26.12345773	     44.59281494	      0.00000000	      0.00000000	     13.62498379	    -12.09012190	     10.41722659	     35.90368887	     44.17193632	      0.00000000	      0.00000000
      0.85771429	     -1.90761919	     -3.47223046	      2.60258406	      1.07610272	      0.91410854	      0.35737555	     26.88828878	     -9.17532751	     -1.61660764	     78.08947264	     78.08947264	      8.66879983	    -19.27303867	     15.17601155	     19.50315415	      0.63658002	      0.64846782	     33.84230566	     33.84230566	     19.26743545	    -17.29056652	      6.21320882	    -10.05382474	      5.77004060	      3.72919691	     17.52350028	    -12.70111150	    -19.56153228	     24.36049148	     44.65212811	      0.00000000	      0.00000000	     15.46537556	    -12.18050665	      9.85366399	     37.34099581	     44.29435199	      0.00000000	      0.00000000
      0.87964286	     -1.65819722	     -3.38621953	      2.01778787	      1.07617216	      0.91340315	      0.35577615	     27.56276075	     -9.49349649	     -1.75606968	     77.30284169	     77.30284169	      9.50172832	    -19.32096792	     15.42289592	     19.00235071	      0.74757430	      0.25719507	     34.17309754	     34.17309754	     19.83481024	    -17.51230706	      6.33733066	    -10.14959992	      6.04949067	      3.68250651	     13.55657968	    -12.66719526	    -19.29988301	     22.82230574	     44.70088010	      0.00000000	      0.00000000	     17.25719769	    -12.36063928	      9.17037416	     38.98564697	     44.42812034	      0.00000000	      0.00000000
      0.90157143	     -1.50220378	     -3.35365828	      1.33203075	      1.07608331	      0.91322639	      0.35480781	     28.19506523	     -9.57806789	     -1.89271362	     75.51903631	     75.51903631	     10.35309764	    -19.32469093	     15.47507698	     18.47738765	      0.74682744	     -0.22157101	     34.24438736	     34.24438736	     20.31098724	    -17.64613268	      6.59610363	    -10.24626855	      6.34443916	      3.57536621	      9.79242688	    -12.57709842	    -19.01655720	     21.53936456	     44.73965587	      0.00000000	      0.00000000	     18.95237746	    -12.64938496	      8.39009344	     40.74773743	     44.56913087	      0.00000000	      0.00000000
      0.92350000	     -1.46990323	     -3.35670129	      0.55968677	      1.07579962	      0.91359644	      0.35448601	     28.74412580	     -9.46746101	     -2.06580537	     72.69657489	     72.69657489	     10.86298338	    -19.28629622	     14.30506631	     17.97629257	      0.66974570	     -0.73989139	     34.09006878	     34.09006878	     20.90490036	    -17.69579574	      7.51973840	    -10.32410399	      6.62375168	      3.07689640	      5.95108962	    -12.44753202	    -17.48042354	     21.84866724	     44.74542630	      0.00000000	      0.00000000	     19.93237940	    -13.17931142	      6.23584872	     43.69336341	     44.93417139	      0.00000000	      0.00000000
      0.94542857	     -1.48480508	     -3.44851557	     -0.33774598	      1.07531292	      0.91457164	      0.35499985	     29.12949243	     -8.94679095	     -2.09263924	     68.97738671	     68.97738671	     11.50185015	    -19.17549427	     13.76900403	     17.35178841	      0.39981292	     -1.43066161	     33.56843443	     33.56843443	     21.04056774	    -17.73737985	      7.61433567	    -10.36966860	      6.93509631	      2.94613918	      2.80298332	    -12.36924371	    -17.22364389	     20.60645804	     44.78955731	      0.00000000	      0.00000000	     21.65838083	    -13.76410351	      5.67565337	     45.02291637	     45.03541525	      0.00000000	      0.00000000
      0.96735714	     -1.64759736	     -3.49214565	     -1.31682835	      1.07463564	      0.91588787	      0.35602525	     29.26731893	     -8.43396359	     -2.20555236	     64.18112214	     64.18112214	     10.59919001	    -19.05555333	      8.48690893	     16.74538893	      0.14204596	     -2.22042157	     32.75104055	     32.75104055	     20.93154493	    -17.75440188	      7.48412889	    -10.35476686	      7.16131008	      2.60335881	     -0.49876102	    -12.36398427	    -15.79364034	     20.79318598	     44.85138105	      0.00000000	      0.00000000	     22.74918486	    -14.55055267	      4.16258523	     47.64031794	     45.31494973	      0.00000000	      0.00000000
      0.98928571	     -1.86360163	     -3.60332010	     -2.33133828	      1.07374614	      0.91753761	      0.35769637	     29.18915771	     -7.60075108	     -2.17583595	     58.74828771	     58.74828771	      9.87459848	    -18.72698684	      4.57505506	     16.12322213	     -0.24704095	     -3.11411275	     31.78798874	     31.78798874	     20.72764192	    -17.70018927	      7.27015915	    -10.33077135	      7.39875422	      2.39557987	     -3.43047543	    -12.37365476	    -14.87214858	     20.64898921	     44.93575700	      0.00000000	      0.00000000	     24.16622845	    -15.41616193	      3.21946909	     49.65476835	     45.50988904	      0.00000000	      0.00000000
      1.01121429	     -2.05703407	     -3.70883768	     -3.39977875	      1.07270401	      0.91953420	      0.35995958	     28.89756543	     -6.52036083	     -1.81287212	     53.04101152	     53.04101152	      9.85695452	    -17.87058901	      3.79929816	     15.37571977	     -0.65450216	     -4.06379479	     30.64347680	     30.64347680	     20.56875994	    -17.56184135	      7.38119342	    -10.37526857	      7.58267725	      2.22756907	     -5.81244572	    -12.37966259	    -14.75150655	     20.11183653	     44.97360929	      0.00000000	      0.00000000	     25.84350692	    -16.40868513	      2.63473568	     51.01829892	     45.60859632	      0.00000000	      0.00000000
      1.03314286	     -2.41163302	     -3.73734129	     -4.42475044	      1.07166576	      0.92131004	      0.36235270	     28.33044654	     -5.74176090	     -1.83781198	     46.65050075	     46.65050075	      7.83587476	    -16.76947206	     -2.52558496	     14.70189529	     -0.98699260	     -5.06852704	     29.28086956	     29.28086956	     19.89545629	    -17.44150102	      6.29839168	    -10.26046934	      7.70648751	      1.78798723	     -8.54498249	    -12.47689173	    -14.12967514	     21.47972338	     45.06476107	      0.00000000	      0.00000000	     26.82846307	    -17.54753085	      1.38848348	     53.58014075	     45.85218769	      0.00000000	      0.00000000
